<?xml version="1.0" standalone="no"?>
<!DOCTYPE svg PUBLIC "-//W3C//DTD SVG 20010904//EN"
 "http://www.w3.org/TR/2001/REC-SVG-20010904/DTD/svg10.dtd">
<svg version="1.0" xmlns="http://www.w3.org/2000/svg"
 width="1920.000000pt" height="1080.000000pt" viewBox="0 0 1920.000000 1080.000000"
 preserveAspectRatio="xMidYMid meet">

<g transform="translate(0.000000,1080.000000) scale(0.100000,-0.100000)"
fill="#000000" stroke="none">
<path d="M5546 10427 c10 -200 -9 -168 192 -329 97 -77 185 -148 195 -156 17
-15 17 -8 15 142 l-3 158 -202 143 -202 144 5 -102z"/>
<path d="M11109 10315 c-20 -7 -55 -25 -77 -40 l-41 -27 -31 25 c-138 117
-391 4 -441 -196 -28 -113 20 -199 249 -455 166 -186 224 -242 251 -242 22 0
81 45 241 185 237 207 298 296 287 416 -6 73 -15 89 -120 207 -68 76 -101 105
-137 121 -55 24 -127 26 -181 6z"/>
<path d="M5425 10174 c-55 -13 -110 -26 -123 -29 -19 -5 7 -29 175 -169 l198
-163 116 31 c64 17 117 35 119 40 1 7 -377 318 -383 315 -1 0 -47 -12 -102
-25z"/>
<path d="M7963 9987 c-10 -34 -3 -57 19 -57 10 0 9 48 -1 74 -6 15 -9 12 -18
-17z"/>
<path d="M7990 9833 c-30 -6 -67 -12 -81 -12 -19 -1 -40 -17 -74 -56 -59 -70
-82 -72 -126 -10 -27 37 -38 45 -64 45 -18 0 -54 3 -80 7 l-47 6 7 -44 c11
-64 18 -69 100 -69 l73 0 36 -50 c20 -27 43 -50 51 -50 17 0 38 20 78 72 25
33 35 38 100 48 98 17 108 23 100 63 -12 63 -12 63 -73 50z"/>
<path d="M17228 9794 c-6 -5 -240 -18 -341 -19 -37 0 -67 -3 -67 -6 0 -7 -76
-23 -100 -22 -8 1 -17 -2 -20 -6 -3 -4 -25 -20 -50 -34 -60 -35 -114 -86 -135
-128 -10 -18 -24 -39 -31 -47 -8 -7 -14 -19 -14 -27 0 -7 -4 -15 -8 -17 -10
-4 -72 -105 -72 -118 0 -6 -4 -10 -10 -10 -5 0 -10 -8 -11 -17 0 -10 -9 -31
-20 -48 -10 -16 -23 -40 -29 -53 -5 -13 -21 -38 -35 -56 -14 -18 -25 -36 -25
-41 0 -4 -22 -44 -49 -89 -73 -122 -87 -154 -101 -233 -16 -88 -4 -157 42
-246 16 -33 27 -61 24 -64 -3 -3 10 -28 27 -57 28 -43 91 -167 130 -256 6 -14
16 -32 23 -40 6 -8 17 -32 24 -53 7 -22 37 -87 67 -145 31 -59 71 -138 91
-177 19 -38 40 -77 47 -85 7 -8 16 -30 20 -49 4 -19 18 -54 32 -78 13 -24 20
-43 15 -43 -20 0 -79 30 -126 64 l-50 35 -19 -32 c-11 -17 -20 -36 -21 -42 -2
-15 -128 -259 -136 -265 -4 -3 -14 -19 -23 -36 -9 -17 -30 -45 -47 -64 -49
-52 -69 -85 -66 -106 2 -10 -1 -24 -5 -30 -13 -17 -1 -41 24 -49 12 -4 24 -8
27 -10 3 -1 12 -5 22 -9 10 -5 53 5 108 24 115 40 156 38 187 -8 12 -18 43
-96 68 -173 51 -151 64 -169 126 -169 28 0 44 8 68 32 20 20 108 184 227 420
l195 388 142 0 c220 0 204 6 260 -113 26 -56 47 -105 47 -109 0 -5 22 -52 49
-105 26 -54 51 -110 55 -125 3 -15 12 -33 19 -40 13 -13 127 -243 131 -263 1
-5 11 -30 23 -55 12 -25 23 -63 26 -85 6 -50 20 -87 41 -104 9 -7 16 -19 16
-27 0 -9 8 -10 31 -4 17 5 37 14 43 19 7 6 15 9 18 6 10 -11 26 21 48 95 38
127 61 160 116 160 19 0 99 -21 178 -46 153 -50 179 -52 216 -12 14 15 20 35
20 66 0 38 -36 116 -256 551 l-257 506 208 360 c114 198 216 383 225 410 30
84 34 127 13 151 -23 25 -40 53 -52 81 -6 11 -14 24 -20 27 -5 3 -19 26 -31
51 -12 25 -26 43 -31 39 -5 -3 -9 1 -9 8 0 7 -21 46 -47 85 -79 119 -86 130
-207 325 -64 102 -116 189 -116 193 0 14 -176 185 -190 185 -9 0 -20 4 -26 10
-10 10 -80 28 -144 36 -19 3 -109 7 -200 9 -91 3 -199 7 -241 9 -42 3 -79 3
-81 0z m273 -162 l29 -32 0 -831 c0 -811 0 -832 -20 -864 -37 -59 -66 -67
-242 -63 -151 3 -157 4 -183 28 -61 57 -60 42 -63 550 -2 305 -7 469 -14 477
-7 9 -44 13 -120 13 -117 0 -168 13 -187 48 -6 12 -11 72 -11 135 0 139 3 144
116 187 147 55 277 157 358 279 73 109 77 111 215 107 91 -2 94 -3 122 -34z"/>
<path d="M2990 9728 c-141 -17 -259 -37 -279 -46 -43 -20 -148 -159 -157 -208
-5 -27 14 -112 80 -367 48 -183 94 -349 103 -370 21 -49 81 -103 132 -118 33
-10 64 -9 160 2 l119 15 72 -53 c40 -29 76 -53 81 -53 8 0 65 68 99 118 13 18
33 24 124 37 60 8 120 22 133 30 28 19 108 119 128 162 25 51 18 96 -53 358
l-68 250 -203 138 c-112 75 -208 137 -214 136 -7 -1 -122 -15 -257 -31z m383
-69 c35 -16 46 -41 53 -119 8 -81 11 -84 94 -93 60 -7 80 -24 80 -68 0 -15 11
-70 25 -123 14 -53 25 -102 25 -110 0 -23 -60 -90 -98 -110 -70 -37 -233 -20
-320 34 -31 19 -32 21 -17 43 13 21 12 34 -16 143 l-30 120 35 59 c20 32 39
74 42 94 8 43 18 65 51 109 26 34 39 38 76 21z"/>
<path d="M8207 9485 l-39 -34 7 -65 c4 -36 9 -66 12 -66 3 0 22 12 44 28 l39
27 -6 60 c-9 85 -13 88 -57 50z"/>
<path d="M6463 9292 c-65 -98 -94 -156 -129 -262 -25 -76 -28 -99 -28 -225 0
-122 2 -147 22 -196 51 -128 157 -229 281 -266 83 -26 235 -23 334 5 144 41
286 125 408 240 l70 66 -36 31 -37 31 -52 -48 c-78 -74 -181 -139 -281 -177
-84 -33 -98 -35 -205 -36 -104 0 -121 3 -171 26 -255 120 -291 451 -86 772
l35 55 -21 19 c-53 46 -49 48 -104 -35z"/>
<path d="M8110 9241 c-38 -32 -42 -39 -32 -58 7 -13 39 -31 85 -47 l73 -27 29
-75 c39 -99 53 -106 112 -58 41 34 44 38 26 45 -13 5 -31 33 -49 79 -15 39
-32 74 -38 78 -6 4 -40 18 -76 32 -39 16 -69 34 -76 47 -10 21 -11 21 -54 -16z"/>
<path d="M6636 9173 c-59 -94 -81 -173 -81 -288 0 -89 3 -105 27 -150 56 -106
136 -150 268 -149 134 1 248 51 367 161 l58 55 -34 28 -34 29 -56 -46 c-148
-121 -315 -144 -411 -56 -56 49 -74 104 -68 203 4 68 11 92 41 151 l36 71 -27
24 c-15 13 -32 24 -39 24 -6 0 -27 -26 -47 -57z"/>
<path d="M8492 9099 l-21 -37 46 -4 c40 -3 51 1 90 31 25 20 41 36 37 37 -5 2
-36 4 -70 6 l-61 4 -21 -37z"/>
<path d="M6817 9063 c-24 -59 -28 -90 -17 -133 15 -57 59 -90 121 -90 49 0
129 25 129 40 0 11 -200 220 -210 220 -4 0 -14 -17 -23 -37z"/>
<path d="M7640 8733 c-64 -101 -241 -285 -340 -355 -287 -202 -615 -263 -840
-155 -27 13 -50 23 -50 21 0 -1 46 -44 103 -94 116 -104 203 -152 317 -176
238 -51 571 64 803 276 31 29 57 47 57 41 0 -6 8 -15 19 -20 15 -9 28 -4 65
24 l45 35 60 -25 c33 -14 67 -25 74 -25 8 0 31 15 52 33 l38 33 -63 27 c-62
27 -63 27 -90 7 -15 -10 -32 -25 -38 -33 -15 -18 -60 -10 -72 12 -5 9 -12 44
-15 77 l-7 61 -65 47 c-50 36 -64 51 -61 69 2 18 14 25 61 37 61 15 59 13 71
90 5 32 2 37 -29 58 -19 12 -36 22 -37 22 -2 -1 -28 -40 -58 -87z"/>
<path d="M9279 8806 c-2 -2 -17 -6 -34 -9 -53 -9 -139 -46 -175 -77 -31 -26
-34 -31 -22 -49 17 -29 15 -32 -14 -19 -24 11 -29 10 -50 -17 -66 -83 -123
-233 -108 -285 l9 -32 127 -2 126 -1 7 50 c19 152 75 215 189 215 59 0 271
-28 317 -42 73 -21 119 -88 119 -172 0 -60 -28 -273 -41 -314 -23 -69 -91
-122 -158 -122 l-29 0 10 -42 c6 -24 12 -65 13 -93 1 -27 3 -57 4 -66 0 -9 11
-20 23 -26 54 -24 185 37 282 132 155 152 191 370 99 604 -14 36 -35 73 -47
83 -11 11 -14 17 -6 13 8 -4 -21 29 -66 72 -106 102 -233 167 -349 178 -16 2
-57 8 -89 14 -60 11 -129 15 -137 7z"/>
<path d="M9284 8510 c-34 -14 -61 -56 -68 -107 -4 -27 -9 -62 -12 -80 -5 -27
-2 -33 25 -47 43 -23 49 -21 61 23 13 49 76 107 125 117 108 20 211 -83 191
-190 -8 -44 -59 -104 -103 -123 -18 -7 -33 -16 -33 -19 0 -4 10 -24 22 -45 20
-37 25 -39 68 -39 56 0 94 25 109 73 5 17 18 95 27 173 16 132 16 142 -1 177
-22 48 -65 63 -230 82 -146 17 -152 17 -181 5z m376 -85 c26 -32 -13 -81 -47
-59 -35 22 -23 74 17 74 10 0 23 -7 30 -15z"/>
<path d="M9376 8319 c-70 -83 17 -194 117 -148 54 25 67 110 22 154 -18 19
-35 25 -69 25 -37 0 -48 -5 -70 -31z"/>
<path d="M13190 8251 c-67 -21 -140 -83 -140 -121 0 -8 -8 -10 -22 -6 -53 15
-116 17 -158 6 -36 -10 -65 -32 -144 -109 -138 -135 -166 -201 -132 -313 30
-101 120 -172 338 -267 190 -83 255 -106 276 -95 9 5 49 43 89 84 62 65 76 87
106 165 118 309 134 406 84 508 -54 110 -193 179 -297 148z"/>
<path d="M6425 7291 c34 -17 36 -19 10 -13 -16 4 -426 7 -910 7 l-880 0 -35
-22 c-19 -12 -48 -36 -65 -53 l-30 -31 -3 -476 c-3 -469 -2 -476 19 -520 13
-27 37 -55 62 -71 l40 -27 446 -6 c493 -6 502 -7 606 -73 27 -18 118 -99 202
-179 143 -138 154 -147 191 -147 62 0 70 16 74 160 2 103 7 131 23 159 36 61
64 74 175 81 113 8 160 30 199 94 22 35 22 40 22 516 1 455 0 483 -19 518 -23
44 -84 90 -132 98 l-35 5 40 -20z m-683 -387 c64 -33 81 -117 33 -168 l-25
-28 28 -27 c61 -56 45 -144 -33 -189 -33 -19 -52 -22 -107 -20 -78 4 -113 24
-141 81 -24 47 -15 92 26 130 30 28 30 28 9 42 -33 24 -46 76 -28 118 32 77
149 107 238 61z m363 -3 c40 -22 70 -79 61 -114 -3 -14 -17 -38 -29 -53 l-24
-27 29 -26 c61 -55 42 -153 -36 -191 -82 -39 -177 -18 -223 50 -31 45 -29 58
13 66 31 6 39 3 58 -19 27 -33 60 -42 97 -27 61 26 46 93 -24 107 -38 8 -42
11 -42 38 0 25 5 30 32 36 61 12 79 45 46 81 -25 28 -70 23 -103 -12 -24 -25
-34 -30 -57 -24 -43 10 -44 13 -24 53 24 45 40 59 88 77 43 15 94 9 138 -15z
m-1065 -120 l0 -140 33 -3 c29 -3 32 -6 32 -38 0 -32 -3 -35 -32 -38 -31 -3
-33 -5 -33 -43 l0 -40 -42 3 c-42 3 -43 4 -46 41 l-3 37 -105 0 c-92 0 -104 2
-104 18 0 9 54 90 121 180 108 145 124 162 150 162 l29 0 0 -139z m406 125 c3
-8 -34 -107 -83 -220 l-88 -206 -47 0 c-56 0 -60 -24 36 194 36 82 66 151 66
153 0 1 -38 3 -84 3 -46 0 -91 3 -100 6 -16 6 -23 64 -9 77 3 4 73 7 155 7
118 0 150 -3 154 -14z"/>
<path d="M5603 6826 c-24 -21 -26 -26 -15 -50 21 -47 106 -46 123 2 7 18 4 28
-16 48 -30 30 -56 30 -92 0z"/>
<path d="M5590 6650 c-43 -43 -9 -100 60 -100 27 0 47 7 60 20 43 43 9 100
-60 100 -27 0 -47 -7 -60 -20z"/>
<path d="M4907 6699 l-38 -54 37 -3 c20 -2 38 -1 41 1 2 3 3 29 1 58 l-3 52
-38 -54z"/>
<path d="M15438 6775 c-3 -3 -77 -17 -164 -30 -87 -14 -169 -28 -182 -31 -34
-7 -42 -41 -29 -124 l11 -72 45 6 c26 4 67 10 94 13 l47 6 0 -100 0 -100 -75
-12 c-88 -15 -83 1 -55 -179 32 -200 24 -183 71 -167 22 8 42 14 44 14 12 1
73 36 100 58 45 37 142 162 170 218 59 120 68 282 24 401 -28 73 -77 122 -101
99z"/>
<path d="M14615 6640 c-93 -15 -172 -26 -174 -24 -2 2 -13 -8 -24 -22 -16 -21
-20 -41 -20 -107 -1 -272 213 -502 504 -541 l46 -7 -9 63 c-5 35 -16 110 -26
168 l-18 105 -34 -1 c-19 0 -57 -2 -85 -5 l-49 -4 -12 70 c-23 127 -25 121 63
134 42 6 78 13 81 15 3 4 -9 81 -24 159 -7 33 2 33 -219 -3z"/>
<path d="M8894 6255 c23 -18 45 -19 66 -4 11 8 7 9 -17 4 -18 -4 -34 -2 -38 4
-3 6 -12 11 -18 11 -7 0 -3 -7 7 -15z"/>
<path d="M9140 6266 c0 -3 9 -10 20 -16 11 -6 20 -8 20 -6 0 3 -9 10 -20 16
-11 6 -20 8 -20 6z"/>
<path d="M10654 6115 c-22 -30 -17 -80 10 -112 l24 -28 -24 -28 c-35 -41 -31
-82 10 -123 19 -19 44 -34 56 -34 20 0 20 -1 6 -22 -26 -37 -20 -76 18 -114
31 -31 39 -34 95 -34 57 0 61 -1 61 -24 0 -56 93 -136 160 -136 67 0 160 80
160 136 0 23 4 24 61 24 54 0 64 3 90 29 31 31 39 83 19 122 -9 16 -7 19 11
19 32 0 89 62 89 97 0 37 -26 73 -53 73 -21 1 -21 1 4 23 48 40 63 95 36 131
-13 18 -39 19 -417 20 -390 1 -403 0 -416 -19z m706 -155 c-85 -10 -508 -10
-585 0 -34 4 93 7 295 7 202 0 327 -3 290 -7z m-182 -177 c-60 -2 -156 -2
-215 0 -60 1 -11 3 107 3 118 0 167 -2 108 -3z"/>
<path d="M11704 5396 c-28 -13 -67 -43 -87 -67 -69 -80 -68 -67 -65 -820 3
-673 3 -674 25 -715 35 -65 69 -100 125 -128 l52 -26 1375 0 1376 0 50 24 c62
28 111 77 139 136 21 45 21 52 21 730 0 677 0 686 -21 730 -31 66 -85 115
-151 135 -49 16 -81 17 -272 11 -445 -15 -2415 -7 -2496 9 -11 2 -43 -6 -71
-19z m366 -716 l0 -520 63 0 c59 1 63 2 90 37 26 35 27 41 27 150 l0 113 150
0 150 0 0 -38 c0 -34 4 -40 34 -55 32 -15 35 -15 50 2 14 15 16 49 16 219 l0
202 150 0 149 0 3 -72 3 -72 52 45 52 44 0 103 1 103 148 -3 147 -3 3 -190 2
-190 32 -32 c30 -31 33 -32 50 -16 15 13 18 32 18 100 l0 83 103 0 103 0 97
80 97 80 0 70 0 70 85 0 c71 0 91 4 114 21 21 15 27 27 23 45 -4 22 -1 24 39
24 l44 0 -3 -505 -3 -505 30 0 c21 0 31 -5 31 -15 0 -13 -126 -15 -1075 -15
l-1075 0 0 -55 c0 -42 -3 -55 -15 -55 -12 0 -15 13 -15 55 l0 55 -50 0 c-38 0
-50 4 -50 15 0 11 12 15 50 15 l50 0 0 565 c0 496 2 565 15 565 13 0 15 -64
15 -520z"/>
<path d="M14105 5000 c-3 -5 -1 -10 4 -10 6 0 11 5 11 10 0 6 -2 10 -4 10 -3
0 -8 -4 -11 -10z"/>
<path d="M13797 4746 c-46 -38 -62 -56 -52 -60 13 -5 15 -52 15 -311 l0 -305
50 0 49 0 3 363 c2 199 3 363 2 365 -1 1 -31 -22 -67 -52z"/>
<path d="M13001 4634 l-51 -46 0 -259 0 -259 55 0 55 0 0 305 c0 168 -2 305
-4 305 -2 0 -27 -21 -55 -46z"/>
<path d="M13354 4465 c3 -22 6 -120 6 -217 l0 -178 50 0 50 0 0 202 0 201 -20
-18 c-20 -18 -21 -18 -57 16 l-36 34 7 -40z"/>
<path d="M12550 4200 l0 -130 50 0 50 0 0 99 c0 54 3 114 7 132 l6 34 -24 -17
c-22 -14 -28 -14 -50 -2 -13 7 -27 13 -31 14 -5 0 -8 -58 -8 -130z"/>
<path d="M12230 4145 c-21 -22 -32 -25 -92 -25 -66 0 -69 -1 -66 -22 3 -22 8
-23 89 -26 l87 -3 4 48 c3 26 4 49 3 50 -1 2 -12 -8 -25 -22z"/>
<path d="M5468 4637 c-21 -12 -45 -32 -53 -44 -9 -13 -45 -156 -81 -320 l-66
-298 11 -89 c21 -158 50 -188 204 -213 51 -8 101 -16 112 -18 11 -3 37 -30 59
-61 21 -30 44 -58 51 -61 7 -2 43 15 79 40 l67 44 82 -13 c115 -19 171 -17
217 6 67 34 75 55 146 377 60 273 65 304 57 363 l-8 65 -64 -290 c-63 -290
-75 -329 -107 -355 -10 -9 -7 0 8 21 18 27 35 89 66 238 l42 203 -102 174
c-69 117 -110 176 -123 180 -64 15 -473 74 -513 74 -31 0 -60 -8 -84 -23z
m541 -144 c17 -15 22 -30 23 -83 1 -36 -2 -75 -6 -86 -7 -19 -3 -24 28 -34 20
-6 41 -20 46 -30 13 -23 13 -102 1 -132 -5 -13 -17 -58 -26 -100 -9 -42 -24
-83 -34 -91 -56 -49 -231 -6 -313 76 -49 49 -60 103 -40 194 19 87 36 110 130
176 43 30 90 71 105 91 31 40 54 45 86 19z"/>
<path d="M8481 4600 c-2 -128 -50 -240 -140 -331 -88 -88 -207 -138 -331 -140
l-55 -1 50 -14 c180 -50 379 45 467 223 27 55 33 79 36 152 2 57 -2 101 -11
131 l-15 45 -1 -65z"/>
<path d="M3430 4241 c-27 -9 -95 -44 -121 -63 -13 -9 -23 -6 -50 14 -167 125
-442 -29 -442 -247 0 -106 41 -169 305 -462 131 -146 171 -183 199 -183 24 0
234 175 371 310 126 124 152 170 153 270 0 47 -6 75 -20 102 -32 58 -172 213
-216 238 -44 24 -137 35 -179 21z"/>
<path d="M16280 3954 c-173 -46 -321 -181 -382 -349 -34 -93 -37 -250 -7 -350
56 -191 220 -339 417 -380 63 -13 212 -15 1090 -13 l1017 3 66 26 c129 50 214
117 283 221 80 120 98 258 56 423 -50 195 -206 349 -405 400 -51 13 -201 15
-1070 17 -555 0 -987 4 -960 8 l50 7 -50 1 c-27 0 -75 -6 -105 -14z m331 -258
c95 -65 89 -209 -11 -265 -108 -60 -240 25 -228 149 8 86 69 139 158 140 32 0
56 -7 81 -24z m249 -111 c58 -30 77 -113 41 -169 -26 -39 -57 -55 -108 -56
-35 0 -48 6 -78 35 -28 29 -35 43 -35 76 0 102 92 160 180 114z m490 -40 c60
-31 79 -99 38 -142 l-21 -23 26 -26 c20 -20 27 -37 27 -66 0 -102 -157 -147
-232 -66 -31 34 -36 63 -12 72 28 11 43 7 68 -19 41 -41 96 -27 96 24 0 30
-14 41 -56 41 -21 0 -24 5 -24 35 0 32 2 35 30 35 20 0 33 7 41 22 10 18 8 24
-11 40 -30 24 -46 23 -76 -7 -14 -14 -31 -25 -39 -25 -24 0 -45 12 -45 25 0
19 49 75 74 85 33 14 84 11 116 -5z m1021 -8 c68 -46 62 -128 -16 -215 -25
-27 -45 -52 -45 -55 0 -4 26 -7 58 -9 56 -3 57 -3 60 -35 l3 -33 -130 0 c-93
0 -131 3 -131 12 0 6 26 41 58 77 88 100 112 135 112 165 0 38 -40 55 -75 32
-14 -9 -25 -21 -25 -26 0 -11 -30 -13 -54 -4 -23 9 -20 28 11 64 46 55 116 66
174 27z m-541 -4 c-1 -10 -31 -90 -69 -178 l-68 -160 -41 -3 c-23 -2 -42 -1
-42 1 0 2 27 65 60 140 33 76 60 139 60 142 0 3 -36 5 -80 5 l-80 0 0 35 0 35
130 0 c117 0 130 -2 130 -17z m278 -15 l-3 -33 -76 -3 c-70 -3 -77 -5 -83 -25
-11 -42 -8 -47 24 -35 44 15 95 2 124 -32 95 -114 -43 -268 -171 -190 -41 24
-71 79 -51 91 23 15 46 10 72 -16 29 -29 52 -31 84 -9 26 18 29 56 6 78 -19
20 -74 21 -99 2 -27 -19 -66 -1 -60 28 2 12 7 56 10 99 l7 77 109 0 110 0 -3
-32z m-1460 -191 c48 -31 104 -119 100 -157 l-3 -25 -218 -3 c-247 -3 -242 -4
-212 74 20 52 65 101 116 127 54 28 164 20 217 -16z m246 -26 c46 -29 90 -102
82 -136 -6 -24 -9 -25 -100 -25 l-94 0 -6 44 c-4 25 -18 61 -32 81 -29 44 -29
43 -1 55 35 15 111 5 151 -19z m640 -47 c21 -20 20 -36 -5 -95 -17 -39 -26
-49 -45 -49 -27 0 -29 7 -14 44 7 18 6 34 -2 52 -11 23 -10 29 11 45 28 23 35
23 55 3z"/>
<path d="M7419 3737 c27 -30 76 -55 123 -63 24 -4 18 0 -19 14 -28 10 -69 31
-90 47 -37 28 -38 28 -14 2z"/>
<path d="M10585 2705 c-83 -22 -138 -45 -188 -78 -44 -30 -47 -35 -43 -65 5
-33 5 -33 -18 -18 -23 14 -25 13 -78 -47 -149 -168 -169 -448 -48 -664 114
-204 367 -328 597 -293 243 37 428 199 498 435 35 118 18 297 -38 415 -53 111
-173 225 -297 281 -105 48 -277 63 -385 34z m100 -245 c16 -17 16 -25 5 -64
-7 -25 -10 -52 -6 -61 7 -19 -3 -14 -57 29 -23 18 -41 26 -47 20 -5 -5 -14
-46 -22 -92 l-12 -82 -23 22 -22 23 18 88 c10 48 20 90 22 92 7 6 103 44 115
44 6 1 19 -8 29 -19z m-351 -378 c4 -7 -1 -37 -19 -118 -4 -17 1 -23 20 -28
14 -4 25 -13 25 -22 0 -12 -8 -14 -37 -8 -21 3 -41 9 -45 13 -11 11 25 171 38
171 7 0 15 -4 18 -8z m159 -79 c31 -6 30 -3 16 -63 -15 -70 -17 -74 -33 -61
-7 6 -16 8 -19 5 -12 -12 -57 7 -72 29 -29 45 18 117 65 101 8 -3 27 -8 43
-11z m149 -29 c13 -9 -4 -34 -38 -55 -41 -25 -43 -37 -7 -41 14 -2 29 -9 31
-17 4 -11 -5 -12 -44 -7 -70 11 -76 22 -31 58 43 35 47 48 12 48 -16 0 -25 6
-25 16 0 14 8 15 48 9 26 -4 50 -9 54 -11z m304 -28 c-3 -11 -10 -52 -17 -89
l-13 -68 -40 7 c-56 9 -75 20 -82 50 -13 52 62 106 102 73 11 -9 14 -8 14 9 0
33 11 51 27 45 9 -4 13 -14 9 -27z m-202 5 c3 -5 15 -7 26 -4 24 6 25 -4 8
-76 -7 -30 -17 -51 -25 -51 -7 0 -13 4 -13 10 0 5 -7 7 -15 4 -26 -10 -61 5
-73 31 -12 27 -8 50 16 78 16 18 67 23 76 8z m318 -62 c27 0 30 -15 17 -75
-11 -49 -15 -55 -33 -50 -12 3 -33 6 -48 6 -20 0 -32 8 -43 29 -26 52 11 108
65 96 14 -4 33 -6 42 -6z"/>
<path d="M10420 1970 c-28 -28 -11 -63 28 -58 30 3 42 39 22 64 -17 19 -26 18
-50 -6z"/>
<path d="M10830 1879 c-10 -18 -9 -25 9 -42 l21 -21 22 22 c18 18 20 26 12 40
-17 26 -51 27 -64 1z"/>
<path d="M10687 1924 c-4 -4 -7 -20 -7 -36 0 -25 4 -28 30 -28 34 0 49 23 33
49 -11 17 -44 26 -56 15z"/>
<path d="M10986 1854 c-10 -26 -7 -52 7 -57 21 -8 57 11 57 31 0 37 -51 59
-64 26z"/>
<path d="M6820 2343 c-31 -12 -108 -69 -185 -138 -155 -138 -516 -445 -524
-445 -4 0 -20 44 -34 98 -31 112 -102 350 -111 373 -13 31 -62 49 -133 49 -77
0 -107 11 -77 29 18 10 18 10 -1 12 -145 12 -720 -89 -850 -150 -36 -16 -65
-34 -66 -38 0 -4 -3 -37 -5 -73 -3 -35 -7 -66 -9 -69 -3 -2 -13 2 -22 10 -14
10 -16 10 -6 0 6 -7 9 -19 7 -26 -8 -20 364 -1484 392 -1541 13 -28 27 -64 30
-81 5 -27 2 -33 -29 -52 -62 -38 -111 -24 -121 36 -22 130 -387 1592 -414
1661 -9 23 -29 54 -43 68 l-26 25 -23 -52 c-14 -34 -22 -73 -22 -108 0 -63
360 -1618 388 -1677 20 -42 77 -83 125 -90 23 -4 220 35 594 116 498 108 569
126 640 160 44 22 98 55 120 74 l40 34 -85 -1 -84 -2 -7 33 c-6 30 -4 34 26
46 42 18 75 61 75 99 0 17 -25 125 -56 240 -40 150 -54 220 -50 246 3 20 8 53
12 73 5 33 2 41 -25 68 -17 18 -31 35 -31 39 0 8 173 148 585 473 138 109 219
180 237 208 26 41 46 115 34 127 -3 4 -6 -3 -6 -15 0 -21 -7 -24 -100 -37 -47
-7 -89 -28 -103 -52 -11 -19 -61 -16 -80 5 -24 26 -47 87 -47 122 0 24 12 41
52 80 49 47 53 56 18 43z m-875 -116 c14 -15 39 -99 79 -266 40 -166 64 -249
77 -262 36 -36 23 -57 -66 -115 -68 -44 -213 -179 -203 -189 15 -15 113 50
201 134 80 77 116 148 87 177 -12 12 538 480 560 476 19 -4 75 -69 91 -104 6
-15 9 -38 6 -51 -6 -22 -980 -857 -1034 -885 -33 -18 -79 0 -104 42 -21 35
-25 25 -8 -23 15 -43 55 -61 142 -64 67 -2 77 0 111 27 21 16 61 38 90 48 57
22 99 56 92 75 -3 6 18 32 47 57 44 38 53 43 59 28 4 -9 37 -137 73 -283 70
-285 71 -301 23 -333 -25 -16 -908 -216 -955 -216 -58 0 -63 12 -192 540 -86
353 -117 496 -109 501 8 5 2 43 -22 136 -54 207 -52 200 -59 179 -5 -12 -13 8
-24 63 -16 74 -17 83 -2 111 9 17 24 34 33 38 46 17 931 190 957 186 17 -2 39
-14 50 -27z m-1008 -419 c-3 -8 -6 -5 -6 6 -1 11 2 17 5 13 3 -3 4 -12 1 -19z
m10 -40 c-3 -8 -6 -5 -6 6 -1 11 2 17 5 13 3 -3 4 -12 1 -19z m10 -40 c-3 -8
-6 -5 -6 6 -1 11 2 17 5 13 3 -3 4 -12 1 -19z m10 -40 c-3 -8 -6 -5 -6 6 -1
11 2 17 5 13 3 -3 4 -12 1 -19z m10 -40 c-3 -8 -6 -5 -6 6 -1 11 2 17 5 13 3
-3 4 -12 1 -19z"/>
<path d="M5669 1353 l-34 -36 37 29 c21 16 38 32 38 37 0 12 -5 9 -41 -30z"/>
<path d="M16508 2289 c-109 -12 -253 -69 -332 -132 -25 -21 -27 -26 -17 -46
15 -28 9 -36 -17 -22 -28 15 -41 8 -82 -44 -90 -115 -139 -227 -161 -367 -27
-173 24 -387 125 -528 18 -25 37 -56 40 -68 17 -51 187 -179 316 -238 62 -28
72 -29 236 -32 170 -4 171 -3 250 27 43 17 108 48 143 68 69 41 201 157 201
177 0 7 13 30 30 53 43 58 96 169 116 244 13 47 18 100 18 199 0 121 -3 143
-28 215 -57 167 -172 311 -312 392 -60 35 -150 72 -193 79 -7 2 -34 7 -60 13
-60 14 -188 19 -273 10z m315 -244 c42 -6 47 -9 47 -31 0 -52 23 -114 57 -154
35 -40 98 -80 128 -80 17 0 18 -17 9 -97 -6 -42 -10 -53 -25 -53 -30 0 -120
39 -163 71 -22 16 -41 27 -43 26 -2 -2 -14 -85 -28 -185 -28 -201 -44 -249
-101 -304 -143 -136 -354 -109 -454 58 -33 54 -35 64 -35 144 0 96 13 129 74
193 64 68 168 106 246 89 44 -9 43 -7 30 -103 l-6 -46 -53 1 c-139 2 -196
-146 -92 -243 36 -33 110 -39 153 -12 60 38 64 52 110 390 23 174 43 324 43
334 0 15 6 18 28 13 15 -2 48 -8 75 -11z"/>
<path d="M1125 2224 c-168 -15 -286 -29 -312 -39 -53 -20 -120 -92 -128 -138
-4 -19 -3 -203 3 -408 l9 -374 41 -99 c46 -111 76 -148 140 -173 40 -15 58
-15 184 -5 l141 12 68 -60 c37 -33 74 -60 81 -60 8 0 44 33 81 73 l65 74 138
11 c156 13 205 31 254 90 17 21 35 53 40 73 6 23 7 172 2 410 -9 372 -9 374
-35 439 l-27 65 7 -366 c6 -361 2 -426 -27 -444 -5 -3 -2 11 6 31 14 32 15 73
8 293 l-7 256 -176 182 -176 183 -55 -1 c-30 -1 -176 -12 -325 -25z m332 -116
c31 -35 56 -123 49 -174 l-6 -44 43 0 c55 0 75 -15 97 -72 14 -38 16 -70 12
-194 -2 -82 -8 -156 -13 -166 -5 -9 -32 -24 -60 -33 -69 -23 -211 -16 -289 14
-108 42 -146 102 -156 249 -6 85 -6 88 26 142 18 30 59 84 92 119 33 36 70 85
82 110 32 68 34 71 70 71 21 0 40 -8 53 -22z m383 -822 c0 -2 -8 -10 -17 -17
-16 -13 -17 -12 -4 4 13 16 21 21 21 13z"/>
<path d="M13200 1927 c-30 -16 -51 -37 -67 -67 -23 -43 -23 -44 -23 -464 0
-410 1 -422 21 -456 12 -19 33 -45 48 -57 l26 -23 -2112 3 -2111 2 -5 -28 -4
-27 2238 0 2238 0 16 -30 c11 -21 15 -60 15 -135 0 -99 2 -107 25 -130 46 -47
63 -37 226 119 82 79 165 151 183 160 31 14 146 16 1147 16 l1114 0 -37 25
-36 24 -533 3 c-294 1 -571 4 -615 6 l-82 3 25 25 c52 52 53 63 53 493 0 259
-4 410 -11 428 -15 40 -48 73 -94 94 -38 18 -83 19 -812 19 -489 0 -781 -4
-798 -10 -17 -6 -24 -6 -20 0 3 5 20 14 38 19 22 6 26 9 11 10 -11 1 -40 -9
-64 -22z m922 -334 c36 -18 58 -62 58 -116 0 -49 -33 -108 -101 -182 l-41 -44
79 -3 78 -3 3 -37 3 -38 -155 0 c-188 0 -188 -1 -85 115 105 117 129 153 129
191 0 60 -64 73 -110 24 -25 -27 -33 -30 -59 -23 -17 4 -31 11 -31 16 0 4 0
13 0 20 0 24 55 78 95 92 43 15 93 11 137 -12z m218 -101 l5 -123 55 56 c49
50 58 55 97 55 24 0 43 -4 43 -8 0 -4 -22 -29 -49 -56 l-49 -48 55 -92 c30
-50 57 -94 60 -98 2 -5 -18 -8 -44 -8 l-49 0 -38 65 c-21 36 -40 65 -44 65 -3
0 -14 -7 -24 -17 -13 -11 -18 -30 -18 -65 l0 -48 -40 0 -40 0 0 226 0 225 38
-3 37 -3 5 -123z m-522 76 l-3 -43 -91 -3 -92 -3 -6 -31 c-11 -56 -10 -57 35
-42 40 14 57 13 111 -8 61 -23 90 -142 51 -208 -51 -87 -197 -93 -266 -11 -37
44 -35 68 5 79 30 7 36 5 65 -26 28 -30 37 -34 65 -28 43 9 61 28 61 67 0 61
-60 85 -129 53 -28 -14 -40 -14 -60 -5 -23 10 -25 16 -20 49 3 20 8 71 12 112
3 41 8 78 11 83 2 4 60 7 129 7 l125 0 -3 -42z"/>
<path d="M8110 1494 c-88 -23 -191 -78 -255 -138 -48 -44 -58 -57 -47 -67 19
-20 14 -30 -12 -23 -20 5 -28 -2 -54 -48 -81 -143 -101 -336 -50 -491 82 -249
306 -411 563 -411 160 1 281 45 386 142 84 77 151 177 180 267 13 39 30 75 38
81 18 14 9 183 -14 263 -43 141 -184 315 -305 376 -120 61 -306 82 -430 49z
m398 -390 c37 -24 44 -59 40 -202 -3 -131 -4 -134 -30 -157 -23 -19 -42 -23
-142 -30 -64 -4 -168 -4 -232 0 -151 10 -163 18 -174 128 -11 112 2 223 29
250 28 29 114 37 326 31 120 -4 166 -9 183 -20z"/>
<path d="M8200 920 c0 -44 3 -80 7 -80 10 0 133 74 133 80 0 6 -123 80 -133
80 -4 0 -7 -36 -7 -80z"/>
<path d="M17160 840 l-44 -30 332 0 332 0 0 25 0 25 -157 0 c-87 0 -216 2
-288 5 l-130 5 -45 -30z"/>
</g>
</svg>
