<?xml version="1.0" standalone="no"?>
<!DOCTYPE svg PUBLIC "-//W3C//DTD SVG 20010904//EN"
 "http://www.w3.org/TR/2001/REC-SVG-20010904/DTD/svg10.dtd">
<svg version="1.0" xmlns="http://www.w3.org/2000/svg"
 width="1280.000000pt" height="800.000000pt" viewBox="0 0 1280.000000 800.000000"
 preserveAspectRatio="xMidYMid meet">

<g transform="translate(0.000000,800.000000) scale(0.100000,-0.100000)"
fill="#000000" stroke="none">
<path d="M6427 7542 l-55 -28 -27 20 c-38 27 -115 33 -170 12 -58 -23 -119
-92 -134 -152 -21 -82 5 -137 139 -291 120 -138 194 -213 212 -213 8 0 64 42
124 93 288 247 312 320 162 490 -93 104 -150 120 -251 69z"/>
<path d="M2530 7386 l0 -94 143 -116 142 -115 3 32 c2 18 1 69 -3 115 l-7 82
-133 95 c-73 52 -136 95 -139 95 -3 0 -6 -42 -6 -94z"/>
<path d="M773 7305 c-99 -13 -190 -28 -202 -34 -28 -15 -98 -109 -106 -142 -8
-31 116 -519 141 -557 37 -57 101 -72 231 -53 50 7 54 6 102 -31 27 -21 54
-38 59 -38 6 0 24 23 42 50 18 28 34 50 35 50 39 0 164 25 181 37 37 24 94
117 94 155 1 18 -21 113 -47 212 l-48 178 -140 95 c-77 52 -144 96 -150 98 -5
1 -92 -8 -192 -20z m297 -60 c7 -8 15 -41 19 -73 l6 -57 47 -6 c60 -9 68 -15
68 -45 0 -13 9 -58 20 -100 l20 -75 -30 -39 c-17 -21 -41 -42 -53 -46 -38 -13
-130 -6 -182 13 -46 17 -50 21 -47 49 1 16 -6 65 -16 109 l-19 79 29 54 c15
30 28 61 28 69 0 9 9 31 21 49 23 38 66 47 89 19z"/>
<path d="M11833 7310 c-234 -20 -258 -27 -302 -91 l-23 -34 7 -278 7 -278 29
-72 c52 -125 85 -143 238 -129 l95 8 48 -43 c27 -24 52 -43 56 -43 4 0 31 24
61 54 l52 53 90 6 c49 4 104 13 122 21 42 17 85 67 92 109 3 18 2 151 -3 297
-7 214 -11 272 -25 300 -16 33 -16 23 -11 -230 3 -187 2 -269 -6 -280 -9 -12
-10 -11 -5 8 4 13 3 105 -1 204 l-7 182 -125 128 c-100 103 -130 128 -151 127
-14 -1 -122 -9 -238 -19z m218 -70 c25 -14 51 -75 53 -125 1 -38 3 -40 36 -45
56 -8 69 -48 65 -190 -1 -63 -3 -116 -4 -118 0 -2 -18 -10 -38 -18 -69 -29
-201 -14 -270 31 -54 36 -82 180 -48 246 9 16 38 54 65 84 27 30 57 69 66 87
31 61 40 66 75 48z"/>
<path d="M2418 7232 c-38 -8 -68 -18 -68 -23 0 -4 61 -57 135 -118 l134 -112
86 23 c47 12 85 24 85 28 0 14 -269 220 -286 219 -10 -1 -49 -8 -86 -17z"/>
<path d="M4255 7099 c-4 -12 -2 -26 4 -32 8 -8 11 -2 11 21 0 37 -6 41 -15 11z"/>
<path d="M4265 6988 c-22 -5 -49 -11 -60 -13 -11 -3 -31 -20 -44 -40 -31 -46
-60 -46 -95 0 -25 32 -32 35 -78 35 l-50 0 6 -32 c3 -17 8 -34 11 -36 2 -3 28
-7 57 -10 46 -3 58 -9 85 -41 l33 -36 37 43 c32 35 47 44 91 52 68 13 70 13
64 50 -5 38 -8 39 -57 28z"/>
<path d="M4437 6739 c-23 -21 -25 -29 -20 -71 l5 -47 29 21 c30 22 37 59 20
102 -7 17 -9 17 -34 -5z"/>
<path d="M3170 6584 c-133 -210 -138 -451 -12 -580 144 -148 430 -112 638 81
l69 64 -25 20 -24 19 -36 -32 c-101 -91 -215 -145 -326 -153 -125 -10 -218 39
-272 141 -23 44 -27 63 -27 141 0 104 24 188 80 276 31 50 32 55 18 71 -26 29
-39 21 -83 -48z"/>
<path d="M4368 6563 c-33 -35 -27 -46 37 -70 44 -16 53 -24 75 -70 36 -74 42
-79 74 -51 l26 23 -32 65 c-30 59 -37 66 -82 83 -27 10 -54 25 -60 33 -10 13
-15 11 -38 -13z"/>
<path d="M3306 6517 c-89 -151 -77 -316 27 -385 36 -24 50 -27 126 -27 74 0
94 5 144 29 31 15 81 49 109 75 l52 48 -27 17 c-26 18 -27 18 -68 -18 -48 -40
-133 -76 -182 -76 -49 1 -114 35 -137 72 -31 51 -28 150 8 220 l27 55 -22 16
c-12 10 -24 17 -27 17 -3 0 -16 -19 -30 -43z"/>
<path d="M1937 6522 l-55 -28 -27 20 c-38 27 -115 33 -170 12 -58 -23 -119
-92 -134 -152 -21 -82 5 -137 139 -291 120 -138 194 -213 212 -213 8 0 64 42
124 93 288 247 312 320 162 490 -93 104 -150 120 -251 69z"/>
<path d="M4647 6466 c-16 -23 -15 -24 16 -29 23 -3 39 2 59 18 22 19 24 24 12
29 -35 13 -72 6 -87 -18z"/>
<path d="M3436 6438 c-25 -58 -21 -95 14 -130 28 -27 36 -30 77 -25 82 9 82
22 -2 112 l-73 80 -16 -37z"/>
<path d="M7943 6439 c-17 -5 -47 -27 -65 -48 -32 -37 -36 -39 -79 -34 -72 8
-109 -10 -187 -90 -129 -134 -122 -235 24 -333 55 -37 291 -144 318 -144 6 0
37 26 69 58 51 52 61 69 101 177 77 211 80 276 14 351 -52 59 -127 84 -195 63z"/>
<path d="M4031 6212 c-41 -67 -155 -189 -232 -248 -73 -56 -167 -106 -254
-135 -96 -33 -264 -33 -342 -2 l-52 21 56 -52 c81 -74 110 -93 172 -117 186
-69 424 -2 639 179 34 29 52 39 52 29 0 -25 25 -26 55 -3 27 22 28 24 12 47
-9 13 -17 38 -17 56 0 22 -8 40 -27 58 -15 14 -31 25 -35 25 -4 0 -15 12 -24
26 -15 22 -15 27 -3 35 8 5 23 9 34 9 32 0 45 14 51 52 5 30 2 38 -22 55 l-29
21 -34 -56z"/>
<path d="M10665 6020 c-11 -5 -73 -9 -137 -9 -120 -1 -240 -21 -268 -46 -8 -7
-25 -16 -37 -19 -13 -4 -23 -15 -23 -23 0 -9 -3 -13 -7 -10 -3 4 -18 -10 -32
-31 -13 -20 -31 -43 -38 -50 -7 -7 -13 -22 -13 -32 0 -10 -5 -22 -10 -25 -6
-4 -22 -27 -35 -53 -35 -66 -66 -120 -98 -169 -47 -73 -89 -157 -96 -188 -11
-57 -3 -161 15 -196 10 -19 19 -43 21 -53 2 -11 17 -40 33 -64 17 -25 31 -49
31 -54 1 -4 2 -12 3 -18 0 -5 9 -18 18 -30 10 -11 16 -20 14 -20 -3 0 12 -35
33 -77 21 -43 43 -94 51 -113 7 -19 28 -58 47 -86 18 -28 33 -57 33 -63 0 -7
10 -27 22 -44 12 -16 23 -41 24 -54 2 -12 12 -37 24 -54 12 -16 20 -32 18 -34
-7 -7 -104 44 -119 61 -10 13 -22 -4 -70 -105 -31 -66 -62 -126 -68 -133 -82
-99 -107 -136 -97 -145 3 -4 1 -12 -4 -18 -7 -9 -3 -17 15 -29 35 -23 48 -23
132 3 105 33 116 24 167 -139 37 -117 76 -146 130 -97 13 12 88 147 166 300
l142 277 124 0 124 0 36 -71 c20 -40 37 -81 40 -92 2 -11 44 -101 94 -199 49
-98 88 -178 85 -178 -3 0 1 -13 10 -30 8 -16 16 -31 16 -32 5 -45 25 -95 46
-114 15 -14 29 -21 31 -15 2 6 8 9 13 5 5 -3 9 -1 9 5 0 6 6 8 13 5 10 -3 20
18 36 71 23 82 48 115 84 115 12 0 69 -15 125 -34 57 -18 112 -31 122 -29 36
9 53 39 46 79 -4 20 -88 195 -187 389 l-179 353 146 253 c81 140 155 278 165
306 20 57 24 93 10 93 -5 0 -12 8 -15 18 -7 19 -18 37 -61 101 -56 83 -64 96
-86 136 -12 22 -27 44 -34 50 -15 12 -175 273 -175 285 0 5 -6 13 -14 17 -8 4
-29 27 -49 50 -19 23 -37 39 -41 36 -3 -4 -6 -2 -6 4 0 12 -41 31 -101 47 -25
7 -118 13 -205 15 -87 1 -166 4 -174 6 -8 2 -24 0 -35 -5z m192 -112 l23 -21
0 -600 0 -599 -29 -29 c-29 -29 -31 -29 -146 -29 -193 0 -185 -19 -185 408 0
242 -3 331 -12 340 -7 7 -43 12 -94 12 -67 0 -86 4 -108 21 -25 19 -26 25 -26
108 0 102 4 108 91 141 97 36 185 107 250 202 21 31 44 58 51 61 7 3 46 6 87
6 64 1 78 -2 98 -21z"/>
<path d="M4200 5935 c-27 -29 -27 -29 22 -49 34 -14 38 -14 62 5 14 11 26 24
26 28 0 4 -17 13 -37 21 -21 8 -41 16 -44 18 -3 1 -16 -9 -29 -23z"/>
<path d="M2065 5440 c-476 -4 -645 -8 -661 -17 -12 -7 -25 -9 -29 -5 -5 4 -5
1 -1 -6 4 -7 1 -15 -8 -18 -31 -12 -36 -65 -36 -383 0 -289 2 -320 19 -358 33
-71 41 -73 359 -73 296 0 368 -7 442 -45 25 -13 98 -74 163 -135 120 -115 147
-129 182 -100 11 9 15 35 15 106 0 93 1 95 33 131 31 33 39 36 108 42 86 8
113 20 139 64 19 30 20 53 20 370 0 367 -1 373 -56 416 -15 12 -32 20 -38 19
-6 -2 -299 -5 -651 -8z m169 -273 c35 -23 43 -72 18 -107 l-20 -27 21 -21 c27
-27 28 -83 2 -112 -43 -47 -146 -50 -191 -5 -33 33 -33 87 0 120 18 18 21 25
10 29 -8 3 -19 18 -25 33 -14 37 6 82 45 99 37 17 107 12 140 -9z m241 7 c40
-19 59 -62 45 -100 -5 -13 -16 -27 -24 -30 -11 -4 -8 -11 10 -29 44 -44 28
-116 -31 -141 -67 -27 -132 -9 -160 46 -15 30 -15 31 11 40 22 9 30 7 50 -15
28 -30 44 -31 75 -6 20 16 22 23 13 38 -6 10 -24 20 -40 23 -22 4 -30 11 -32
32 -3 22 1 27 24 30 38 4 55 35 30 54 -27 20 -43 18 -69 -9 -25 -26 -67 -25
-67 1 0 21 28 55 55 70 29 16 72 14 110 -4z m-755 -88 c0 -90 1 -95 23 -98 16
-2 23 -11 25 -30 3 -24 0 -28 -22 -28 -22 0 -26 -4 -26 -30 0 -27 -3 -30 -30
-30 -27 0 -30 3 -30 30 l0 30 -76 0 c-95 0 -95 -1 12 144 60 81 83 106 101
106 22 0 23 -2 23 -94z m284 86 c2 -4 -24 -73 -58 -152 l-62 -145 -37 -3 -36
-3 54 123 54 123 -67 5 c-64 5 -67 6 -70 33 l-3 27 110 0 c60 0 112 -3 115 -8z"/>
<path d="M2120 5115 c-23 -28 -8 -50 35 -50 35 0 40 3 43 24 6 38 -52 58 -78
26z"/>
<path d="M2122 4994 c-42 -29 -18 -74 40 -74 48 0 65 47 26 74 -12 9 -27 16
-33 16 -6 0 -21 -7 -33 -16z"/>
<path d="M1631 5031 c-27 -37 -26 -41 4 -41 22 0 25 4 25 35 0 19 -2 35 -4 35
-3 0 -14 -13 -25 -29z"/>
<path d="M8189 4845 c-3 -2 -60 -13 -127 -24 -68 -11 -127 -23 -132 -26 -11
-7 -13 -43 -4 -98 6 -35 9 -38 33 -33 14 3 43 8 64 12 l37 6 0 -75 0 -76 -53
-6 -54 -7 19 -121 c10 -67 21 -123 23 -125 2 -3 30 8 60 24 78 39 160 120 192
191 24 51 27 71 28 163 0 81 -4 112 -17 137 -27 49 -55 73 -69 58z"/>
<path d="M7640 4754 c-41 -8 -97 -16 -125 -18 l-50 -4 -13 -54 c-12 -46 -12
-62 2 -118 40 -161 172 -280 340 -305 l48 -8 -5 29 c-3 16 -11 63 -17 104 -18
118 -13 112 -79 104 -65 -7 -62 -11 -76 87 l-7 47 54 7 c29 4 56 9 59 11 3 1
1 32 -5 68 -11 75 -4 73 -126 50z"/>
<path d="M3468 4648 c6 -6 18 -8 28 -6 14 3 12 5 -9 10 -19 3 -25 2 -19 -4z"/>
<path d="M4729 4556 c-16 -17 -10 -72 11 -91 20 -18 20 -18 -1 -33 -15 -10
-19 -23 -17 -50 2 -30 9 -40 34 -52 28 -14 31 -18 26 -55 -5 -50 19 -75 80
-82 39 -5 45 -9 59 -42 40 -95 190 -85 215 13 5 20 12 26 34 26 73 0 114 45
93 101 -10 26 -9 29 8 29 50 0 80 84 39 113 l-20 14 20 18 c20 19 26 60 11 83
-6 10 -72 13 -295 15 -171 1 -291 -2 -297 -7z m404 -123 c-56 -2 -151 -2 -210
0 -59 1 -13 3 102 3 116 0 164 -2 108 -3z"/>
<path d="M482 4227 c-12 -7 -28 -22 -36 -33 -8 -10 -35 -115 -61 -232 -38
-177 -45 -223 -39 -270 14 -119 37 -141 165 -162 73 -12 76 -13 105 -56 16
-24 33 -44 37 -44 5 0 29 14 53 31 l45 31 88 -12 c78 -11 92 -11 124 5 20 9
42 26 50 38 14 22 107 430 107 470 0 12 -4 28 -8 35 -5 8 -24 -59 -47 -169
-22 -100 -41 -177 -42 -172 -2 5 8 63 21 128 l25 120 -66 115 c-36 63 -70 120
-77 127 -13 13 -314 63 -378 63 -24 -1 -53 -6 -66 -13z m389 -108 c19 -19 21
-30 16 -78 -5 -56 -4 -58 23 -68 22 -8 29 -18 32 -44 3 -31 -31 -184 -47 -209
-12 -19 -107 -11 -160 14 -90 42 -116 95 -94 195 9 42 18 57 51 84 23 17 64
53 92 79 28 26 54 48 59 48 4 0 17 -10 28 -21z m149 -463 c0 -8 -12 -28 -26
-43 l-26 -28 21 29 c12 16 21 35 21 42 0 8 2 14 5 14 3 0 5 -6 5 -14z"/>
<path d="M5469 4029 c-48 -22 -86 -73 -99 -135 -7 -33 -10 -208 -8 -510 3
-442 4 -460 24 -498 11 -22 37 -54 58 -70 l38 -31 1004 -3 c993 -2 1005 -2
1044 18 22 11 52 39 67 62 l28 42 3 485 c2 267 0 501 -3 519 -7 39 -59 100
-99 117 -23 10 -207 12 -820 10 -435 -2 -883 0 -996 4 -177 5 -209 4 -241 -10z
m271 -509 l0 -370 43 0 c36 0 47 5 65 30 18 24 22 43 22 110 l0 80 105 0 105
0 0 -30 c0 -19 7 -33 21 -40 45 -24 49 -11 49 150 l0 150 110 0 110 0 0 -51 0
-51 34 29 c32 27 34 32 38 103 l3 75 105 0 105 0 3 -136 c2 -129 4 -137 27
-159 13 -12 28 -19 34 -15 6 3 11 35 11 71 l0 64 76 0 75 0 69 57 c67 55 69
58 72 107 l3 51 65 3 c71 3 90 13 83 42 -5 17 0 20 31 20 l36 0 0 -360 c0
-353 0 -360 20 -360 11 0 20 -4 20 -10 0 -7 -263 -10 -770 -10 l-770 0 0 -40
c0 -22 -4 -40 -10 -40 -5 0 -10 18 -10 40 l0 40 -40 0 c-22 0 -40 5 -40 10 0
6 18 10 40 10 l40 0 0 400 c0 260 4 400 10 400 6 0 10 -130 10 -370z"/>
<path d="M7195 3750 c-3 -5 -1 -10 4 -10 6 0 11 5 11 10 0 6 -2 10 -4 10 -3 0
-8 -4 -11 -10z"/>
<path d="M6971 3566 c-23 -19 -37 -37 -31 -41 6 -4 10 -86 10 -221 l0 -214 35
0 35 0 0 255 c0 140 -2 255 -4 255 -2 0 -23 -15 -45 -34z"/>
<path d="M6402 3487 l-32 -33 0 -182 0 -182 35 0 35 0 0 199 c0 110 3 206 6
215 10 26 -10 18 -44 -17z"/>
<path d="M6660 3243 l0 -153 35 0 35 0 0 124 c0 68 3 132 7 141 5 15 3 16 -17
5 -20 -11 -25 -9 -41 11 -18 24 -19 21 -19 -128z"/>
<path d="M6080 3180 l0 -90 35 0 35 0 0 68 c0 37 3 78 7 91 5 21 4 22 -14 13
-12 -7 -25 -7 -34 -1 -26 17 -29 9 -29 -81z"/>
<path d="M5852 3140 c-9 -16 -23 -20 -62 -20 -38 0 -50 -4 -50 -15 0 -12 14
-15 65 -15 l65 0 0 35 c0 41 -1 42 -18 15z"/>
<path d="M3167 3435 c-20 -168 -146 -291 -312 -305 -69 -6 -70 -6 -30 -15 104
-24 232 16 295 93 57 70 84 183 61 262 -6 20 -9 13 -14 -35z"/>
<path d="M8729 2994 c-101 -30 -211 -132 -250 -232 -18 -44 -23 -77 -23 -147
0 -70 5 -103 23 -147 26 -67 102 -155 165 -192 95 -56 98 -56 876 -56 435 0
732 4 758 10 111 26 221 111 269 208 25 51 28 68 28 158 0 96 -2 103 -38 176
-59 120 -158 194 -288 218 -81 14 -1472 18 -1520 4z m269 -180 c102 -71 27
-236 -92 -203 -126 36 -102 219 28 219 23 0 52 -7 64 -16z m200 -100 c31 -36
29 -79 -7 -115 -35 -35 -77 -38 -114 -9 -34 27 -41 52 -27 95 22 66 101 82
148 29z m317 -9 c47 -19 63 -59 37 -94 -17 -25 -17 -27 0 -43 20 -20 23 -59 8
-87 -14 -27 -64 -44 -104 -37 -32 6 -76 45 -76 67 0 17 42 21 59 5 23 -21 67
-21 75 0 9 23 -11 44 -41 44 -34 0 -28 42 7 50 36 8 34 44 -3 48 -18 2 -29 -2
-33 -12 -6 -16 -45 -22 -57 -10 -16 16 25 61 68 76 11 3 21 6 23 7 1 1 18 -6
37 -14z m716 5 c20 0 49 -42 49 -71 0 -38 -13 -65 -53 -106 l-31 -33 47 0 c43
0 47 -2 47 -25 0 -25 -1 -25 -90 -25 -62 0 -90 4 -90 12 0 6 22 37 48 67 58
67 74 94 66 115 -8 20 -53 21 -60 1 -6 -15 -45 -21 -57 -9 -3 4 0 19 9 35 14
28 65 52 92 43 8 -2 18 -4 23 -4z m-368 -7 c3 -5 -18 -63 -46 -130 -48 -116
-52 -123 -79 -123 -15 0 -28 4 -28 8 0 5 18 50 40 101 22 50 40 94 40 97 0 2
-25 4 -55 4 -52 0 -55 1 -55 25 0 25 1 25 89 25 50 0 92 -3 94 -7z m197 -18
c0 -24 -3 -25 -55 -25 -30 0 -55 -4 -55 -9 0 -5 -3 -16 -6 -24 -4 -13 2 -14
35 -10 46 6 76 -12 92 -56 21 -54 -30 -121 -91 -121 -33 0 -75 26 -88 54 -10
22 -9 26 9 31 13 4 27 0 39 -10 10 -10 30 -15 47 -13 22 2 28 8 28 27 0 35
-27 48 -66 34 -46 -18 -56 -5 -52 64 6 86 3 83 88 83 73 0 75 -1 75 -25z
m-1048 -131 c37 -19 79 -76 81 -111 l2 -28 -154 -3 c-87 -1 -159 2 -164 7 -14
14 10 74 42 105 55 53 126 64 193 30z m186 -24 c36 -22 68 -79 59 -104 -5 -12
-21 -16 -71 -16 l-65 0 -7 35 c-3 19 -15 47 -27 61 -17 22 -18 27 -6 35 24 15
83 10 117 -11z m472 -55 c0 -30 -34 -85 -53 -85 -15 0 -17 5 -11 23 4 12 7 35
5 51 -1 16 4 33 11 37 16 10 48 -8 48 -26z"/>
<path d="M2396 2848 c7 -12 84 -50 93 -46 4 2 -17 15 -46 29 -28 14 -50 21
-47 17z"/>
<path d="M4682 2109 c-24 -4 -72 -23 -105 -42 -50 -27 -63 -40 -67 -63 -4 -21
-8 -25 -14 -16 -12 20 -72 -41 -100 -103 -63 -136 -59 -268 10 -396 81 -148
230 -228 407 -217 243 16 420 238 386 485 -34 242 -268 401 -517 352z m67
-183 c7 -9 9 -29 5 -55 l-7 -41 -33 25 c-18 14 -35 25 -38 25 -3 0 -11 -27
-18 -60 -6 -33 -16 -60 -20 -60 -16 0 -20 51 -8 101 10 42 18 53 44 65 40 17
61 17 75 0z m-260 -316 c-9 -38 -8 -46 7 -57 23 -17 12 -27 -19 -19 -24 6 -24
8 -16 48 18 85 20 91 29 82 5 -5 5 -27 -1 -54z m138 -13 c2 -2 1 -23 -3 -46
-6 -39 -8 -41 -39 -38 -17 2 -37 7 -42 10 -19 12 -21 45 -6 67 13 18 22 21 51
17 19 -4 36 -8 39 -10z m89 -18 c3 -5 -7 -20 -23 -34 l-28 -25 23 -6 c21 -6
31 -24 13 -24 -26 0 -71 14 -71 22 0 5 12 19 27 32 l27 23 -22 7 c-12 4 -20
11 -18 15 6 10 65 2 72 -10z m221 -21 c-4 -13 -9 -42 -13 -65 -7 -45 -7 -45
-76 -34 -4 0 -12 10 -18 22 -9 16 -8 26 5 46 14 20 22 24 46 19 24 -5 29 -2
29 14 0 12 7 20 16 20 12 0 15 -6 11 -22z m-121 -1 c3 -2 1 -22 -4 -43 -8 -37
-10 -39 -43 -36 -37 4 -49 16 -49 48 0 32 21 46 59 40 18 -3 35 -7 37 -9z
m191 -33 l30 -6 -10 -49 c-6 -32 -13 -46 -21 -42 -6 4 -19 6 -28 5 -9 -2 -24
8 -34 22 -15 24 -15 28 0 51 18 27 20 28 63 19z"/>
<path d="M4557 1583 c-4 -3 -7 -15 -7 -25 0 -13 7 -18 25 -18 20 0 25 5 25 25
0 18 -5 25 -18 25 -10 0 -22 -3 -25 -7z"/>
<path d="M4857 1523 c-12 -12 -7 -41 7 -46 19 -7 40 18 32 38 -6 15 -28 20
-39 8z"/>
<path d="M4744 1535 c-8 -20 4 -35 27 -35 14 0 19 7 19 25 0 18 -5 25 -20 25
-11 0 -23 -7 -26 -15z"/>
<path d="M4967 1503 c-11 -10 -8 -41 4 -49 16 -9 43 21 36 40 -7 16 -28 21
-40 9z"/>
<path d="M1200 1974 c-77 -21 -133 -59 -125 -85 6 -18 4 -20 -14 -14 -17 5
-26 -2 -51 -41 -36 -58 -62 -134 -58 -171 l3 -28 92 -1 91 -1 7 46 c15 104 54
141 149 141 76 0 205 -20 238 -37 40 -20 58 -62 58 -135 -1 -73 -23 -205 -39
-237 -14 -26 -61 -51 -96 -51 -21 0 -25 -4 -20 -23 3 -12 7 -45 8 -72 2 -28 6
-56 11 -63 18 -30 99 -5 178 55 93 71 139 168 139 292 0 78 -24 169 -58 220
-10 15 -16 31 -14 36 1 6 0 7 -4 3 -4 -3 -23 11 -42 33 -19 21 -45 45 -58 52
-12 6 -41 22 -65 35 -36 20 -218 63 -260 61 -8 0 -40 -7 -70 -15z"/>
<path d="M12205 1891 c-17 -10 -131 -104 -254 -210 -123 -105 -226 -191 -230
-191 -4 0 -25 61 -46 136 -22 75 -41 132 -43 126 -6 -18 69 -294 84 -310 14
-13 15 -13 12 1 -2 10 65 73 192 181 107 91 199 166 203 166 14 0 67 -64 73
-88 4 -12 0 -30 -7 -39 -8 -9 -175 -153 -373 -319 -245 -208 -365 -304 -381
-304 -14 0 -33 11 -44 26 -24 31 -29 10 -6 -23 23 -32 127 -42 164 -16 14 11
52 32 85 46 41 19 57 31 53 42 -7 16 63 80 74 67 3 -4 27 -94 54 -200 54 -220
53 -234 -12 -251 -104 -28 -631 -141 -655 -141 -18 0 -33 8 -42 23 -22 35
-188 719 -176 727 6 4 3 30 -9 76 -11 38 -24 89 -31 113 -6 23 -14 40 -18 36
-4 -3 -12 15 -19 41 -14 55 -4 90 29 104 40 16 650 131 682 128 24 -2 35 -11
49 -38 19 -34 19 -35 12 -5 -9 43 -27 57 -81 62 -73 6 -96 12 -89 23 22 36
-505 -53 -604 -102 -41 -20 -46 -27 -47 -58 -3 -66 -4 -71 -12 -66 -4 2 -9 -6
-10 -20 -1 -13 3 -24 9 -24 5 0 8 -4 4 -9 -9 -15 252 -1031 279 -1086 l24 -50
-26 -17 c-54 -36 -88 -21 -97 42 -9 61 -272 1105 -292 1157 -8 23 -24 50 -34
59 -18 16 -19 15 -34 -19 -8 -20 -15 -55 -15 -77 0 -48 255 -1150 277 -1198
19 -39 63 -65 112 -64 42 1 754 155 821 177 25 9 70 32 100 53 l54 37 -59 5
c-52 4 -60 8 -63 27 -2 15 5 25 25 35 52 25 52 52 4 239 -37 142 -42 174 -32
195 16 37 14 52 -15 81 l-26 26 29 23 c15 13 129 103 253 201 124 97 246 197
272 222 44 42 78 104 64 118 -3 4 -6 1 -6 -5 0 -6 -21 -14 -47 -17 -27 -4 -65
-19 -86 -33 l-38 -25 -25 25 c-16 15 -28 41 -31 66 -5 38 -2 44 33 76 42 39
37 47 -11 17z m-1328 -363 c-3 -8 -6 -5 -6 6 -1 11 2 17 5 13 3 -3 4 -12 1
-19z"/>
<path d="M8925 1809 c-116 -13 -273 -89 -260 -128 4 -13 -1 -17 -22 -16 -21 0
-34 -12 -69 -62 -66 -96 -87 -161 -92 -284 -5 -126 10 -190 66 -288 20 -34 43
-74 50 -87 22 -39 112 -111 190 -151 l75 -38 142 0 141 0 76 38 c372 183 429
690 105 918 -109 76 -260 113 -402 98z m223 -175 c25 -5 30 -11 30 -33 -2 -62
56 -136 120 -156 22 -6 23 -11 17 -53 -4 -26 -9 -49 -11 -51 -8 -9 -90 22
-121 45 l-32 25 -5 -23 c-3 -13 -12 -74 -21 -137 -18 -135 -43 -188 -108 -225
-111 -63 -236 -25 -292 88 -27 55 -31 95 -14 147 30 88 101 139 194 139 l55 0
0 -32 c0 -55 -10 -76 -31 -71 -56 15 -119 -37 -119 -98 0 -48 47 -99 91 -99
40 0 82 23 96 52 7 12 24 113 38 223 36 277 33 265 60 265 12 0 36 -3 53 -6z"/>
<path d="M1240 1767 c-28 -14 -49 -64 -49 -118 -1 -28 4 -38 21 -46 20 -9 24
-6 40 28 19 42 69 79 108 79 56 0 120 -65 120 -122 0 -34 -35 -85 -70 -103
-34 -18 -34 -16 -19 -49 19 -40 89 -41 115 -1 22 34 47 235 34 269 -13 34 -55
52 -145 60 -38 4 -83 9 -100 12 -16 2 -41 -1 -55 -9z m278 -73 c4 -27 -26 -40
-46 -20 -21 20 -8 48 20 44 14 -2 24 -11 26 -24z"/>
<path d="M1315 1635 c-14 -13 -25 -33 -25 -45 0 -26 43 -70 68 -70 32 0 72 38
72 69 0 33 -37 71 -69 71 -12 0 -33 -11 -46 -25z"/>
<path d="M6519 1531 l-39 -39 0 -313 c0 -287 2 -316 18 -342 10 -15 27 -34 38
-42 17 -13 -167 -14 -1494 -12 -1434 2 -1512 1 -1512 -15 0 -17 83 -18 1594
-18 1470 0 1595 -1 1607 -17 9 -10 15 -48 17 -102 4 -90 14 -111 55 -111 10 0
64 44 120 98 56 54 113 106 127 115 22 16 94 17 824 17 743 0 799 1 777 16
-20 15 -65 17 -360 17 -280 0 -591 9 -543 15 7 1 21 17 32 35 19 30 20 51 20
330 0 245 -3 303 -15 327 -32 63 -3 60 -640 61 -333 0 -571 4 -560 9 19 8 18
9 -4 9 -14 1 -38 -14 -62 -38z m708 -236 c40 -46 24 -121 -37 -180 -17 -16
-30 -32 -30 -37 0 -4 23 -8 50 -8 49 0 50 -1 50 -30 l0 -30 -110 0 c-81 0
-110 3 -110 13 0 6 30 46 66 87 69 78 87 110 78 134 -12 32 -66 30 -84 -3 -12
-23 -60 -17 -60 8 0 19 28 54 55 70 34 20 106 7 132 -24z m143 -52 l0 -87 38
37 c28 27 46 37 70 37 41 0 40 -8 -2 -49 l-34 -33 39 -64 c21 -36 39 -67 39
-69 0 -3 -15 -5 -33 -5 -27 0 -36 6 -59 45 -34 55 -58 53 -58 -6 0 -37 -2 -39
-30 -39 l-30 0 0 160 0 160 30 0 30 0 0 -87z m-380 47 l0 -30 -70 0 -70 0 0
-29 c0 -28 1 -29 31 -21 61 18 129 -36 129 -100 0 -55 -57 -110 -115 -110 -49
0 -115 50 -115 86 0 21 44 25 60 5 35 -44 100 -33 100 17 0 16 -5 33 -12 40
-16 16 -59 15 -84 -3 -17 -11 -25 -12 -38 -2 -14 11 -16 24 -10 95 l7 82 93 0
94 0 0 -30z"/>
<path d="M11720 1413 c0 -6 -28 -31 -62 -56 -67 -48 -159 -137 -142 -137 17 0
107 60 147 98 40 39 73 90 63 100 -3 3 -6 0 -6 -5z"/>
<path d="M2907 1235 c-71 -18 -100 -33 -166 -85 -39 -31 -52 -47 -48 -61 4
-14 1 -19 -11 -17 -20 4 -59 -64 -78 -135 -57 -216 58 -444 262 -519 81 -30
216 -30 296 -1 104 38 210 146 248 251 11 31 25 65 30 74 6 10 10 42 10 71 0
175 -124 351 -286 408 -76 27 -183 33 -257 14z m292 -284 c38 -38 38 -214 0
-252 -17 -17 -37 -19 -184 -19 -148 0 -167 2 -184 19 -38 38 -38 214 0 252 17
17 35 19 184 19 148 0 167 -2 184 -19z"/>
<path d="M2970 825 c0 -30 3 -55 8 -55 4 0 28 13 54 28 l47 28 -49 27 c-26 15
-51 27 -54 27 -3 0 -6 -25 -6 -55z"/>
<path d="M11404 1198 l-19 -23 23 19 c21 18 27 26 19 26 -2 0 -12 -10 -23 -22z"/>
<path d="M9385 771 l-30 -21 238 0 c204 0 237 2 237 15 0 8 -8 15 -17 15 -10
0 -103 3 -208 6 -180 5 -192 4 -220 -15z"/>
</g>
</svg>
